<?xml version="1.0" encoding="UTF-8"?>
<svg xmlns="http://www.w3.org/2000/svg" xmlns:xlink="http://www.w3.org/1999/xlink" width="0" height="0">
<!-- Uploaded to: SVG Repo, www.svgrepo.com, Generator: SVG Repo Mixer Tools -->
<symbol id="rd-icon-spotter" viewBox="0 0 16 16">
<path fill-rule="evenodd" clip-rule="evenodd" d="M8 16L3.54223 12.3383C1.93278 11.0162 1 9.04287 1 6.96005C1 3.11612 4.15607 0 8 0C11.8439 0 15 3.11612 15 6.96005C15 9.04287 14.0672 11.0162 12.4578 12.3383L8 16ZM3 6H5C6.10457 6 7 6.89543 7 8V9L3 7.5V6ZM11 6C9.89543 6 9 6.89543 9 8V9L13 7.5V6H11Z" fill="#000000"/>
</symbol>
<!-- Uploaded to: SVG Repo, www.svgrepo.com, Generator: SVG Repo Mixer Tools -->
<symbol id="rd-icon-aperture" viewBox="0 0 16 16">
<path d="M5.6906 6.00001L3.16512 1.62576C4.50811 0.605527 6.18334 0 8 0C8.37684 0 8.74759 0.0260554 9.11056 0.076463L5.6906 6.00001Z" fill="#000000"/>
<path d="M5.11325 9L1.69363 3.07705C0.632438 4.43453 0 6.14341 0 8C0 8.33866 0.0210434 8.67241 0.0618939 9H5.11325Z" fill="#000000"/>
<path d="M4.89635 15.3757C2.93947 14.5512 1.37925 12.9707 0.581517 11H7.42265L4.89635 15.3757Z" fill="#000000"/>
<path d="M8 16C7.62316 16 7.25241 15.9739 6.88944 15.9235L10.3094 10L12.8349 14.3742C11.4919 15.3945 9.81666 16 8 16Z" fill="#000000"/>
<path d="M16 8C16 9.85659 15.3676 11.5655 14.3064 12.9229L10.8868 7H15.9381C15.979 7.32759 16 7.66134 16 8Z" fill="#000000"/>
<path d="M11.1036 0.624326C13.0605 1.44877 14.6208 3.02927 15.4185 5H8.57735L11.1036 0.624326Z" fill="#000000"/>
</symbol>
</svg>
