<svg
  xmlns="http://www.w3.org/2000/svg"
  xmlns:xlink="http://www.w3.org/1999/xlink"
  style="display: none"
>
  <symbol viewBox="0 0 18 18" id="rd-icon-formula">
    <path
      d="m8.5 4.5c0 1.38071-1.11929 2.5-2.5 2.5s-2.5-1.11929-2.5-2.5 1.11929-2.5 2.5-2.5 2.5 1.11929 2.5 2.5z"
    />
    <path d="m15.5 3.375h-2v2.625h-2.5v2h2.5v2.375h2v-2.375h2.5v-2h-2.5z" />
    <path d="m1 12.875c0-2.7614 2.23858-5 5-5s5 2.2386 5 5v3.125h-10z" />
  </symbol>
  <symbol viewBox="0 0 18 18" id="rd-icon-bla">
    <path
      clip-rule="evenodd"
      d="m6 0h-3v1h-1c-.55228 0-1 .44772-1 1v14c0 .5523.44772 1 1 1h14c.5523 0 1-.4477 1-1v-14c0-.55228-.4477-1-1-1h-1v-1h-3v1h-6zm-3 3v12h12v-12zm6 6h4v4h-4z"
      fill-rule="evenodd"
    />
  </symbol>
  <symbol viewBox="0 0 18 18" id="rd-icon-arrow-down">
    <path
      d="m9.98578.999985h-2v12.164515l-3.2858-3.28582-1.41421 1.41422 4.70001 4.7v.0071h.00708l1.00001 1 5.70713-5.7071-1.4142-1.41422-3.30002 3.30002z"
    />
  </symbol>
  <symbol viewBox="0 0 18 18" id="rd-icon-arrow-left">
    <path
      d="m16.9928 9.99289v-2h-12.16448l3.2858-3.2858-1.41421-1.41421-4.70002 4.70001h-.00708v.00708l-1.000012 1.00001 5.707112 5.70712 1.41421-1.4142-3.29999-3.30001z"
    />
  </symbol>
  <symbol viewBox="0 0 18 18" id="rd-icon-arrow-right">
    <path
      d="m.992798 8.00709v2.00001h12.164502l-3.28581 3.2858 1.41421 1.4142 4.7-4.7h.0071v-.0071l1-1-5.7071-5.70711-1.41421 1.41422 3.30001 3.29998z"
    />
  </symbol>
  <symbol viewBox="0 0 18 18" id="rd-icon-arrow-up">
    <path
      d="M7.99997 17H9.99997V4.83551L13.2858 8.12131L14.7 6.70709L9.99997 2.00708V2H9.99289L8.99287 0.999985L3.28577 6.70709L4.69998 8.12131L7.99997 4.82132V17Z"
    />
  </symbol>
  <symbol viewBox="0 0 18 18" id="rd-icon-attribute">
    <path
      clip-rule="evenodd"
      d="m14 14.8004h-2.8032c-.0397-.3993-.0795-.7786-.0596-1.1779-.6561.6588-1.4712 1.3775-3.35986 1.3775-2.22664 0-3.77734-1.1379-3.77734-3.1143 0-2.55539 2.98211-3.33398 5.94433-3.5935.33797-.01997.71567-.0599.91447-.0599 0-1.43738-.4771-2.13611-1.66993-2.13611-1.07356 0-1.63022.55898-1.72963 1.49728h-2.9821c.15904-2.17605 1.82902-3.59347 4.71173-3.59347 3.02183 0 4.59243 1.13793 4.59243 4.71143v3.19417c0 .7786.0199 2.1162.2187 2.8948zm-3.161-4.2922c0-.1198 0-.2196.0198-.3594l-.5367.0599c-2.3062.2595-3.16107.6189-3.16107 1.5771 0 .7587.63619 1.2178 1.57058 1.2178 1.43139 0 2.10739-.8983 2.10739-2.4954z"
      fill-rule="evenodd"
    />
  </symbol>
  <symbol viewBox="0 0 18 18" id="rd-icon-bold">
    <path
      d="m5 15h3.9264c2.144 0 4.0736-.716 4.0736-3.5 0-1.74397-.7456-2.35598-1.7216-2.64397.88-.288 1.2216-1.356 1.2216-2.356 0-1.5-1.2216-3.61643-4.5-3.5h-3zm2-5h2c1.344 0 2 .5 2 1.5s-.352 1.5-2 1.5h-2zm0-4.99997h1c2 0 2.5 1 2.5 1.5s-.236 1.436-1.5 1.5h-2z"
    />
  </symbol>
  <symbol viewBox="0 0 18 18" id="rd-icon-book-closed">
    <path
      d="M14 3.28571V15H5.5C4.98457 15 4.33333 15.0714 4.33333 14.5C4.33333 13.9286 4.98457 14 5.5 14H13V1H3.86667C2.8358 1 2 1.8955 2 3V15C2 16.1045 2.8358 17 3.86667 17H16V3.28571H14Z"
    />
  </symbol>
  <symbol viewBox="0 0 18 18" id="rd-icon-book">
    <path
      d="m8.5 3.85716-5.22528-1.49294c-.63882-.18252-1.27472.29714-1.27472.96152v10.88376c0 .4634.31829.866.76912.973l5.73088 1.3599z"
    />
    <path
      d="m9.5 16.5424 5.7309-1.3599c.4508-.107.7691-.5096.7691-.973v-10.88376c0-.66438-.6359-1.14404-1.2747-.96152l-5.2253 1.49294z"
    />
  </symbol>
  <symbol viewBox="0 0 18 18" id="rd-icon-brush">
    <path
      clip-rule="evenodd"
      d="m4.2 5.3125h9.6l-.4371 2.74313c-.0233.10893-.0746.21197-.1503.30149s-.1737.16323-.2869.21567l-2.2971 1.07128c-.1449.06619-.2647.16679-.3452.28989-.0805.12304-.1184.26354-.1091.40454l.4886 6.8784c.007.1006-.01.2015-.0499.2963s-.102.1816-.1823.255c-.0803.0733-.1771.1318-.2846.1716-.1075.0399-.22336.0604-.34038.0602h-1.62001c-.11626.0001-.23133-.0201-.33822-.0596-.10689-.0394-.20336-.0971-.28354-.1697s-.14239-.1584-.18286-.2524c-.04046-.0939-.05833-.194-.05252-.2941l.42857-6.893c.00922-.1384-.02688-.2762-.10418-.39766-.07729-.12149-.19267-.2218-.33296-.28947l-2.23714-1.0565c-.11362-.05479-.21126-.13117-.28551-.22334-.07426-.09217-.12319-.1977-.14306-.3086zm-1.2-5.3125h2.16857l1.43143 1.0625 1.2-1.0625h7.2l-1.2 4.25h-9.6z"
      fill-rule="evenodd"
    />
  </symbol>
  <symbol viewBox="0 0 18 18" id="rd-icon-bulb">
    <path
      d="m11 12.6586c2.3304-.8237 4-3.04616 4-5.6586 0-3.31371-2.6863-6-6-6-3.31371 0-6 2.68629-6 6 0 2.61243 1.66961 4.8349 3.99999 5.6586v1.3414h4.00001z"
    />
    <path d="m6.99999 15h4.00001v1h-4.00001z" />
    <path d="m10 18 1-1h-4l1 1z" />
  </symbol>
  <symbol viewBox="0 0 18 18" id="rd-icon-calendar">
    <path
      clip-rule="evenodd"
      d="m6 0h-3v1h-1c-.55228 0-1 .44772-1 1v14c0 .5523.44772 1 1 1h14c.5523 0 1-.4477 1-1v-14c0-.55228-.4477-1-1-1h-1v-1h-3v1h-6zm-3 3v12h12v-12zm6 6h4v4h-4z"
      fill-rule="evenodd"
    />
  </symbol>
  <symbol viewBox="0 0 18 18" id="rd-icon-caret-down">
    <path clip-rule="evenodd" d="m4 7 5 6 5.07-6z" fill-rule="evenodd" />
  </symbol>
  <symbol viewBox="0 0 18 18" id="rd-icon-caret-left">
    <path clip-rule="evenodd" d="m11 4-6 5 6 5.07z" fill-rule="evenodd" />
  </symbol>
  <symbol viewBox="0 0 18 18" id="rd-icon-caret-right">
    <path clip-rule="evenodd" d="m7 14.07 6-5-6-5.07z" fill-rule="evenodd" />
  </symbol>
  <symbol viewBox="0 0 18 18" id="rd-icon-caret-up">
    <path clip-rule="evenodd" d="m14.07 11-5-6-5.07 6z" fill-rule="evenodd" />
  </symbol>
  <symbol viewBox="0 0 18 18" id="rd-icon-case">
    <path
      clip-rule="evenodd"
      d="m6.625 2c-1.10457 0-2 .89543-2 2v1h2v-1h4.75v1h2v-1c0-1.10457-.8954-2-2-2zm-3.625 4c-.55228 0-1 .44772-1 1v7c0 .5523.44772 1 1 1h12c.5523 0 1-.4477 1-1v-7c0-.55228-.4477-1-1-1z"
      fill-rule="evenodd"
    />
  </symbol>
  <symbol viewBox="0 0 18 18" id="rd-icon-chart">
    <path d="m9 2h3v14h-3z" />
    <path d="m8 7h-3v9h3z" />
    <path d="m4 10h-3v6h3z" />
    <path d="m16 5h-3v11h3z" />
  </symbol>
  <symbol viewBox="0 0 18 18" id="rd-icon-checkmark-circle">
    <path
      clip-rule="evenodd"
      d="m9 18c4.9706 0 9-4.0294 9-9 0-4.97056-4.0294-9-9-9-4.97056 0-9 4.02944-9 9 0 4.9706 4.02944 9 9 9zm-.79289-5.0858 6.20709-6.20709-1.4142-1.41422-4.79289 4.79291-2.2929-2.29291-1.41421 1.41422z"
      fill-rule="evenodd"
    />
  </symbol>
  <symbol viewBox="0 0 18 18" id="rd-icon-checkmark">
    <path
      clip-rule="evenodd"
      d="m15.7042 5.46987-8.20709 8.53013-5.20711-5.41205 1.41421-1.46987 3.7929 3.94222 6.79289-7.0603z"
      fill-rule="evenodd"
    />
  </symbol>
  <symbol viewBox="0 0 18 18" id="rd-icon-chevron-down">
    <path
      clip-rule="evenodd"
      d="m3.29285 7.70712 1.41421-1.41421 4.29289 4.29289 4.29285-4.29289 1.4143 1.41421-5.70715 5.70708z"
      fill-rule="evenodd"
    />
  </symbol>
  <symbol viewBox="0 0 18 18" id="rd-icon-chevron-left">
    <path
      clip-rule="evenodd"
      d="m10.7071 3.14648 1.4142 1.41422-4.29287 4.29289 4.29287 4.29291-1.4142 1.4142-5.7071-5.70711z"
      fill-rule="evenodd"
    />
  </symbol>
  <symbol viewBox="0 0 18 18" id="rd-icon-chevron-right">
    <path
      clip-rule="evenodd"
      d="m7.41421 14.5607-1.41421-1.4142 4.2929-4.29294-4.2929-4.29289 1.41421-1.41422 5.70709 5.70711z"
      fill-rule="evenodd"
    />
  </symbol>
  <symbol viewBox="0 0 18 18" id="rd-icon-chevron-up">
    <path
      clip-rule="evenodd"
      d="m14.7071 11-1.4143 1.4142-4.29285-4.29287-4.29289 4.29287-1.41421-1.4142 5.7071-5.70709z"
      fill-rule="evenodd"
    />
  </symbol>
  <symbol viewBox="0 0 18 18" id="rd-icon-clock">
    <path
      clip-rule="evenodd"
      d="m16 9c0 3.866-3.134 7-7 7-3.86599 0-7-3.134-7-7 0-3.86599 3.13401-7 7-7 3.866 0 7 3.13401 7 7zm2 0c0 4.9706-4.0294 9-9 9-4.97056 0-9-4.0294-9-9 0-4.97056 4.02944-9 9-9 4.9706 0 9 4.02944 9 9zm-10 2v-7h2v5h3v2z"
      fill-rule="evenodd"
    />
  </symbol>
  <symbol viewBox="0 0 18 18" id="rd-icon-cog">
    <path
      clip-rule="evenodd"
      d="m7.68735.106065c-.02927.003289-.05701.0148-.08001.033201-.023.0184-.04032.042937-.04995.070772-.07441.195337-.10888.405654-.14361.617549-.02997.182853-.06013.366883-.11632.543473-.13863.37256-.38123.7278-1.03972.9964-.66715.27725-1.09171.19928-1.44694.02599-.16578-.08087-.31835-.18815-.47092-.29544-.17436-.12261-.34873-.24522-.54281-.32839-.02521-.01115-.05292-.01543-.08032-.01238-.02739.00304-.05349.01329-.07564.02971-.70823.52368-1.33584 1.14838-1.86283 1.85416-.01641.02215-.02666.04825-.02971.07564-.00304.0274.00123.05511.01238.08032.08318.19408.20579.36845.3284.54281.10728.15257.21457.30514.29543.47092.17329.35523.25993.77979-.02599 1.43828-.26859.66715-.62383.90975-.9964 1.03972-.18368.06261-.373395.09506-.562362.12738-.203231.03476-.405596.06937-.598654.14121-.026658.00896-.050395.02497-.068698.04633-.018303.02135-.030492.04726-.0352747.07497-.1298684.87609-.1298684 1.76653 0 2.64261.0086647.0607.0519867.104.1039727.13.195337.0744.405653.1089.617548.1436.182848.03.366878.0601.543468.1163.37257.1386.72781.3812.9964 1.0397.27726.6672.19928 1.0917.02599 1.447-.08086.1657-.18815.3183-.29543.4709-.12261.1743-.24522.3487-.3284.5428-.01115.0252-.01542.0529-.01238.0803.00305.0274.0133.0535.02971.0757.51986.7104 1.15236 1.3429 1.86283 1.8628.04332.0346.10397.0433.15596.0173.19408-.0832.36844-.2058.54281-.3284.15257-.1073.30514-.2146.47092-.2954.35523-.1733.77979-.2599 1.43828.026.66715.2686.90975.6238 1.03972.9964.06261.1837.09506.3734.12738.5623.03476.2033.06937.4056.14121.5987.01733.052.06931.0866.1213.0953.87609.1299 1.76653.1299 2.64261 0 .0274-.0017.0538-.0107.0766-.0259s.0412-.0362.0534-.0607c.0741-.1991.1085-.4106.1431-.6225.0301-.1847.0603-.3697.1168-.5472.1386-.3726.3812-.7278 1.0397-.9964.6672-.2773 1.0917-.1993 1.447-.026.1657.0808.3183.1881.4709.2954.1744.1226.3487.2452.5428.3284.052.026.1126.0173.156-.0173.7088-.5263 1.3365-1.154 1.8628-1.8628.018-.0231.0292-.0508.0323-.0799s-.0021-.0585-.015-.0848c-.0819-.1865-.202-.3563-.3227-.5269-.1092-.1544-.2188-.3094-.3011-.4781-.1733-.3553-.2599-.7798.026-1.447.2686-.6585.6238-.9011.9964-1.0397.1773-.0564.3603-.0866.5429-.1167.2097-.0346.4189-.0691.6181-.1432.0242-.0115.0454-.0284.0619-.0495.0165-.021.028-.0456.0334-.0718.1299-.87611.1299-1.76656 0-2.64265-.0017-.02736-.0107-.05379-.0259-.07661s-.0362-.04122-.0607-.05335c-.1991-.07408-.4106-.10857-.6225-.14314-.1847-.03013-.3697-.06031-.5472-.11679-.3726-.13863-.7278-.38123-.9964-1.03972-.2773-.66715-.1993-1.09171-.026-1.44694.0808-.16578.1881-.31835.2954-.47092.1226-.17437.2452-.34873.3284-.54281.0112-.02521.0154-.05292.0124-.08032-.0031-.02739-.0133-.05349-.0297-.07564-.5263-.70885-1.154-1.3365-1.8628-1.86283-.0222-.01641-.0483-.02666-.0757-.02971-.0274-.00304-.0551.00123-.0803.01238-.1941.08318-.3685.20579-.5428.3284-.1526.10728-.3052.21457-.4709.29543-.3553.17329-.7798.25993-1.447-.02599-.6585-.26859-.9011-.62383-1.0397-.9964-.0564-.17737-.0866-.36036-.1167-.542877-.0346-.209774-.0691-.418912-.1432-.61814-.009-.026657-.025-.050394-.0463-.068698-.0214-.018303-.0473-.030491-.075-.0352737-.87611-.1298684-1.76656-.1298684-2.64265 0zm1.31265 12.893935c2.2091 0 4-1.7909 4-4 0-2.20914-1.7909-4-4-4-2.20914 0-4 1.79086-4 4 0 2.2091 1.79086 4 4 4z"
      fill-rule="evenodd"
    />
  </symbol>
  <symbol viewBox="0 0 18 18" id="rd-icon-community">
    <path
      clip-rule="evenodd"
      d="m12.2545 16s0-1.5415-.0447-2.3077c-.1026-1.7616-.5599-2.8423-1.0799-4.0623.54-.35 1.1999-.53 1.9499-.53 2.62 0 3.94 2.64 3.92 6.9zm.7653-12.5c.5305 0 1.0392.21071 1.4142.58579.3751.37507.5858.88378.5858 1.41421s-.2107 1.03914-.5858 1.41421c-.375.37508-.8837.58579-1.4142.58579-.5304 0-1.0391-.21071-1.4142-.58579-.375-.37507-.5857-.88378-.5857-1.41421s.2107-1.03914.5857-1.41421c.3751-.37508.8838-.58579 1.4142-.58579zm-6.99987-2.5c.66303 0 1.29891.26339 1.76774.73223.46884.46884.73223 1.10473.73223 1.76777s-.26339 1.29893-.73223 1.76777c-.46883.46884-1.10471.73223-1.76774.73223s-1.29891-.26339-1.76774-.73223c-.46884-.46884-.73223-1.10473-.73223-1.76777s.26339-1.29893.73223-1.76777c.46883-.46884 1.10471-.73223 1.76774-.73223zm0 6.5c3.31995 0 4.97997 3.17 4.97997 8.5h-9.9999c.02-5.33 1.68998-8.5 5.01993-8.5z"
      fill-rule="evenodd"
    />
  </symbol>
  <symbol viewBox="0 0 18 18" id="rd-icon-conditional-format">
    <path d="m18 3h-8v3h8z" />
    <path d="m8 8h-8v3h8z" />
    <path d="m0 3h8v3h-8z" />
    <path d="m8 13h-8v3h8z" />
  </symbol>
  <symbol viewBox="0 0 16 16" id="rd-icon-configure-filter">
    <path
      fill-rule="evenodd"
      clip-rule="evenodd"
      d="M12 15C13.1046 15 14 14.1046 14 13C14 11.8954 13.1046 11 12 11C10.8954 11 10 11.8954 10 13C10 14.1046 10.8954 15 12 15ZM9 11.9999H2V13.9999H9V11.9999Z"
      fill="#777E8B"
    />
    <path
      fill-rule="evenodd"
      clip-rule="evenodd"
      d="M4 10C5.10457 10 6 9.09145 6 7.9707C6 6.84995 5.10457 5.94141 4 5.94141C2.89543 5.94141 2 6.84995 2 7.9707C2 9.09145 2.89543 10 4 10ZM14 6.95599H7V8.98529H14V6.95599Z"
      fill="#777E8B"
    />
    <path
      fill-rule="evenodd"
      clip-rule="evenodd"
      d="M12 5C13.1046 5 14 4.10457 14 3C14 1.89543 13.1046 1 12 1C10.8954 1 10 1.89543 10 3C10 4.10457 10.8954 5 12 5ZM9 1.99994H2V3.99994H9V1.99994Z"
      fill="#777E8B"
    />
  </symbol>
  <symbol viewBox="0 0 18 18" id="rd-icon-copy-link">
    <path
      clip-rule="evenodd"
      d="m1 5c0-1.10457.7835-2 1.75-2h4.25v2h-4v8h4v2h-4.25c-.9665 0-1.75-.8954-1.75-2zm4 3h8v2h-8zm10.25 7c.9665 0 1.75-.8954 1.75-2v-8c0-1.10457-.7835-2-1.75-2h-4.25v2h4v8h-4v2z"
      fill-rule="evenodd"
    />
  </symbol>
  <symbol viewBox="0 0 18 18" id="rd-icon-copy">
    <path
      clip-rule="evenodd"
      d="m10 6c1.1046 0 2 .89543 2 2v7c0 1.1046-.8954 2-2 2h-7c-1.10457 0-2-.8954-2-2v-7c0-1.10457.89543-2 2-2zm0 9v-7h-7v7z"
      fill-rule="evenodd"
    />
    <path
      d="m16 1c.5523 0 1 .44772 1 1v8c0 .5523-.4477 1-1 1h-8c-.55228 0-1-.4477-1-1v-8c0-.55228.44772-1 1-1z"
    />
  </symbol>
  <symbol viewBox="0 0 18 18" id="rd-icon-create-monitor">
    <path
      d="M7.00022 17C7.53071 17 8.03929 16.7893 8.41432 16.4141C8.78958 16.0391 9.00024 15.5305 9.00024 15H5.00024C5.00024 15.5305 5.2109 16.0391 5.58617 16.4141C5.96115 16.7893 6.46974 17 7.00022 17Z"
    />
    <path
      fill-rule="evenodd"
      clip-rule="evenodd"
      d="M7.30531 3.10529C6.97797 2.95156 6.59409 2.96622 6.27754 3.14926C5.93343 3.34845 5.72135 3.71641 5.72053 4.11478V4.47517C2.16632 5.15193 2.47216 9.1074 2.47216 9.1074L2.47213 11.7602L1.1256 13.2657C1.00301 13.3887 0.966237 13.5736 1.03269 13.7344C1.09893 13.8952 1.25529 14 1.42863 14H12.238C12.4113 14 12.5677 13.8952 12.6339 13.7344C12.7004 13.5736 12.6637 13.3887 12.5411 13.2657L11.1945 11.7602L11.1946 10.7236C8.7631 9.9574 7 7.68461 7 5.00003C7 4.33793 7.10724 3.70087 7.30531 3.10529Z"
    />
    <path
      fill-rule="evenodd"
      clip-rule="evenodd"
      d="M16.5606 1.43921C14.5912 -0.491579 11.4296 -0.479665 9.47495 1.47496C7.52025 3.42966 7.50842 6.59152 9.43947 8.56084C11.4088 10.4916 14.5705 10.4797 16.5251 8.5251C18.4798 6.57039 18.4916 3.40853 16.5606 1.43921ZM12.1478 1.94275L13.979 1.94275L13.979 4.14781H15.9855V5.97902H13.979V7.98573L12.1478 7.98573L12.1478 5.97902H9.94252V4.14781L12.1478 4.14781L12.1478 1.94275Z"
    />
  </symbol>
  <symbol viewBox="0 0 18 18" id="rd-icon-create-pinboard">
    <path d="m1 14h16v3h-16z" />
    <path d="m15 2h-2v2h-2v2h2v2h2v-2h2v-2h-2z" />
    <path d="m8 9h-7v3h7z" />
    <path d="m10 9h7v3h-7z" />
    <path d="m8 4h-7v3h7z" />
  </symbol>
  <symbol viewBox="0 0 18 18" id="rd-icon-create-worksheet">
    <path
      clip-rule="evenodd"
      d="m2.99965 1c-1.10501 0-1.99965.89588-1.99965 2v12c0 1.1046.89543 2 2 2h12c1.1046 0 2-.8954 2-2v-7h-8v-7zm4.00035 7v-5h-4.00035l.00015 5zm-4.00014 2h4.00014v5h-4zm6.00014 0h6v5h-6z"
      fill-rule="evenodd"
    />
    <path d="m13 1h2v2h2v2h-2v2h-2v-2h-2v-2h2z" />
  </symbol>
  <symbol viewBox="0 0 18 18" id="rd-icon-cross-circle">
    <path
      clip-rule="evenodd"
      d="m9 18c4.9706 0 9-4.0294 9-9 0-4.97056-4.0294-9-9-9-4.97056 0-9 4.02944-9 9 0 4.9706 4.02944 9 9 9zm-4.22181-11.77819 1.41421-1.41421 2.82843 2.82842 2.87867-2.87866 1.4142 1.41421-2.8787 2.87867 2.8285 2.82846-1.4142 1.4142-2.82847-2.8285-2.77819 2.7782-1.41421-1.4142 2.77819-2.77816z"
      fill-rule="evenodd"
    />
  </symbol>
  <symbol viewBox="0 0 18 18" id="rd-icon-cross">
    <path
      d="m4.75735 3.34314-1.41421 1.41421 4.24264 4.24264-4.24264 4.24261 1.41421 1.4142 4.24264-4.2426 4.24261 4.2426 1.4142-1.4142-4.2426-4.24261 4.2426-4.24264-1.4142-1.41421-4.24261 4.24264z"
    />
  </symbol>
  <symbol viewBox="0 0 18 18" id="rd-icon-data-column">
    <path
      clip-rule="evenodd"
      d="m1.14282 5.15384c0-1.05655.81927-1.92175 1.85718-1.99498v-1.15886h3v1.15383h6v-1.15383h3v1.15886c1.0379.07327 1.8571.93845 1.8571 1.99497v8.76927c0 1.1045-.8954 2-2 2h-11.71428c-1.10457 0-2-.8955-2-2zm6.85718 0h-4.85718v3.30769h4.85718zm2-.00001v3.3077h4.8571v-3.3077zm-2 5.46157h-4.85718v3.3077h4.85718zm2 3.3077v-3.3077h4.8571v3.3077z"
      fill-rule="evenodd"
    />
  </symbol>
  <symbol viewBox="0 0 18 18" id="rd-icon-database">
    <path
      clip-rule="evenodd"
      d="m15 9c0 1.0667-2.62 2.2222-6 2.2222-3.37 0-5.98-1.1555-6-2.20442v-3.09334c1.48.81778 3.64 1.29778 6 1.29778s4.52-.48 6-1.29778zm0 2.7022v3.1111c-.04 1.2089-2.71 2.1867-6 2.1867s-5.96-.9778-6-2.1956v-3.1111c1.48.8267 3.64 1.3067 6 1.3067s4.52-.48 6-1.2978zm-6-6.25776c-3.31 0-6-.99555-6-2.22222 0-1.22666 2.69-2.22222 6-2.22222s6 .99556 6 2.22222c0 1.22667-2.69 2.22222-6 2.22222z"
      fill-rule="evenodd"
    />
  </symbol>
  <symbol viewBox="0 0 14 14" id="rd-icon-disable-search">
    <path
      d="M3.73333 4.31667L4.31667 3.73333L6.06667 5.48333L7.81667 3.73333L8.4 4.31667L6.65 6.06667L8.4 7.81667L7.81667 8.4L6.06667 6.65L4.31667 8.4L3.73333 7.81667L5.48333 6.06667L3.73333 4.31667Z"
      fill="#4A515E"
    />
    <path
      fill-rule="evenodd"
      clip-rule="evenodd"
      d="M6.0293 12.353C7.48945 12.353 8.8293 11.8207 9.87201 10.9366L12.8634 14L14 12.8352L10.9648 9.72617C11.6539 8.72174 12.0595 7.49766 12.0595 6.17604C12.0595 2.76536 9.35977 0 6.0293 0C2.69974 0 0 2.76536 0 6.17604C0 9.58763 2.69974 12.353 6.0293 12.353ZM6.0293 10.706C8.47201 10.706 10.4508 8.67799 10.4508 6.17604C10.4508 3.675 8.47201 1.64701 6.0293 1.64701C3.5875 1.64701 1.60781 3.675 1.60781 6.17604C1.60781 8.67799 3.5875 10.706 6.0293 10.706Z"
      fill="#4A515E"
    />
  </symbol>
  <symbol viewBox="0 0 18 18" id="rd-icon-documentation">
    <path
      clip-rule="evenodd"
      d="m13 4h2v12.125c0 .2321-.1054.4546-.2929.6187s-.4419.2563-.7071.2563h-10c-.26522 0-.51957-.0922-.70711-.2563-.18753-.1641-.29289-.3866-.29289-.6187v-14.25c0-.23206.10536-.45462.29289-.61872.18754-.16409.44189-.25628.70711-.25628h10c.2652 0 .5196.09219.7071.25628.1875.1641.2929.38666.2929.61872v1.125h-10v1h4v4.875l2-1.875 2 1.875z"
      fill-rule="evenodd"
    />
  </symbol>
  <symbol viewBox="0 0 18 18" id="rd-icon-download">
    <path
      d="m12.01 8.19-2 2v-10.19h-2.00002v10.19l-2-2-1.41 1.41 4.41 4.41 4.41002-4.41z"
    />
    <path d="m16 15h-14v2h14z" />
  </symbol>
  <symbol viewBox="0 0 18 18" id="rd-icon-drill-down">
    <path
      d="m12.08 12h3.92l-6 6-6-6h4c0-6.832-.736-9.6896-6-11 10.08 0 10.08 6.6656 10.08 11z"
    />
  </symbol>
  <symbol viewBox="0 0 18 18" id="rd-icon-edit-text">
    <path
      clip-rule="evenodd"
      d="m3.73244 1c-.34581-.597801-.99216-1-1.73244-1-1.104569 0-2 .895431-2 2 0 .74028.402199 1.38663 1 1.73244v10.53516c-.597801.3458-1 .9921-1 1.7324 0 1.1046.895431 2 2 2 .74028 0 1.38663-.4022 1.73244-1h10.53516c.3458.5978.9921 1 1.7324 1 1.1046 0 2-.8954 2-2 0-.7403-.4022-1.3866-1-1.7324v-10.53516c.5978-.34581 1-.99216 1-1.73244 0-1.104569-.8954-2-2-2-.7403 0-1.3866.402199-1.7324 1zm-.73244 2.73244c.30363-.17564.5568-.42881.73244-.73244h10.53516c.1756.30363.4288.5568.7324.73244v10.53516c-.3036.1756-.5568.4288-.7324.7324h-10.53516c-.17564-.3036-.42881-.5568-.73244-.7324zm3 2.26756h6v2h-2v5h-2v-5h-2z"
      fill-rule="evenodd"
    />
  </symbol>
  <symbol viewBox="0 0 18 18" id="rd-icon-embrace">
    <path
      d="m7.78261 3c-3.16414 0-5.78261 2.65632-5.78261 6 0 3.3437 2.61847 6 5.78261 6 1.47209 0 2.81779-.5698 3.84319-1.517.6166-.5695 1.116-1.2746 1.4534-2.0711l1.8416.7802c-.2792.6589-.6422 1.2719-1.0756 1.8247l2.5669 2.5669-1.4142 1.4142-2.5749-2.5749c-1.2931.9885-2.89921 1.577-4.64039 1.577-4.32772 0-7.78261-3.6117-7.78261-8 0-4.38831 3.45489-8 7.78261-8 2.00221 0 3.82579.77819 5.20029 2.04785.5486.50673 1.0261 1.09202 1.4163 1.73827.0971.16081.2141.38661.2964.54936.0436.08614.0821.16377.1096.21986l.0328.06702.0092.01877.0032.00666-1.8007.8704-.0023-.00468-.0076-.01576-.0294-.05996c-.0251-.05116-.0601-.12174-.0994-.19942-.0834-.16492-.17-.32928-.2239-.41847-.2932-.48571-.6514-.92432-1.0613-1.30291-1.0254-.94719-2.3711-1.51699-3.84319-1.51699z"
    />
    <path
      d="m8.20711 5.29999 1.41421 1.41421-1.2858 1.2858h9.66448v2h-9.67867l1.29999 1.3-1.41421 1.4142-3.70711-3.70711z"
    />
  </symbol>
  <symbol viewBox="0 0 14 14" id="rd-icon-enable-search">
    <path
      d="M5.7357 8.20711L8.4714 5.4714L8 5L5.7357 7.2643L4.4714 6L4 6.4714L5.7357 8.20711Z"
      fill="#4A515E"
    />
    <path
      fill-rule="evenodd"
      clip-rule="evenodd"
      d="M9.87201 10.9366C8.8293 11.8207 7.48945 12.353 6.0293 12.353C2.69974 12.353 0 9.58763 0 6.17604C0 2.76536 2.69974 0 6.0293 0C9.35977 0 12.0595 2.76536 12.0595 6.17604C12.0595 7.49766 11.6539 8.72174 10.9648 9.72617L14 12.8352L12.8634 14L9.87201 10.9366ZM10.4508 6.17604C10.4508 8.67799 8.472 10.706 6.0293 10.706C3.5875 10.706 1.60781 8.67799 1.60781 6.17604C1.60781 3.675 3.5875 1.64701 6.0293 1.64701C8.472 1.64701 10.4508 3.675 10.4508 6.17604Z"
      fill="#4A515E"
    />
  </symbol>
  <symbol viewBox="0 0 18 18" id="rd-icon-enter">
    <path d="m7 9h6v-7h2v9h-8v4l-5-4.998 5-5.002z" />
  </symbol>
  <symbol viewBox="0 0 19 18" id="rd-icon-escape">
    <path
      d="m4.38892 8.27795v1.72066h-2.40474v1.64349h2.84686v1.7537h-4.83104v-8.28344h4.82026v1.76479h-2.83608v1.4008zm4.78791 2.83465c0-.2647-.06471-.4412-.17254-.5625-.2369-.2018-.50714-.3587-.79799-.4632-.66152-.21653-1.26125-.59519-1.74694-1.10304-.37058-.43274-.57047-.99105-.56074-1.56625-.01154-.33428.05139-.66687.18403-.97262.13264-.30574.33153-.57662.5816-.79216.52999-.44582 1.20142-.67736 1.88713-.65077.50683 0 .95974.1103 1.35873.3309.40979.2206.72249.54046.93819.94857.2157.39708.3235.86034.3235 1.36771v.2206h-1.97341v-.2206c0-.3309-.0647-.55149-.18332-.70591-.10783-.13236-.26959-.19854-.49604-.19854-.21567 0-.36664.05515-.47448.17648-.10783.1103-.16175.27574-.16175.50737 0 .15442.05391.28678.1941.43017s.42056.30884.80877.48532c.77642.28677 1.35873.65076 1.72533 1.08093.3667.44119.5608 1.00374.5608 1.67654 0 .75-.2372 1.3346-.7117 1.7648-.47451.4302-1.09995.6287-1.87637.6287-.50383.0072-1.00234-.1061-1.45578-.3309-.43135-.2206-.78721-.5515-1.03523-.9817-.2567-.4476-.38733-.9591-.37742-1.478v-.2206h1.98418v.2206c0 .3971.07548.6839.20488.8383.12941.1434.34508.2206.67937.2206.42056 0 .5931-.1875.5931-.6508zm8.86407-.5515c.0146.8072-.275 1.5892-.8087 2.184-.2767.2597-.6016.4599-.9554.5888-.3539.1288-.7294.1837-1.1043.1612-.9382 0-1.6607-.3088-2.1567-.9486-.5443-.7661-.8111-1.7019-.7549-2.64716v-1.30153c0-1.12505.2588-2.00744.7764-2.62512.2637-.31813.5953-.5701.9692-.73647.374-.16637.7802-.24271 1.1876-.22313.8842 0 1.5744.26472 2.0488.78313.4745.5184.7441 1.25741.8088 2.20598l.0108.2206h-1.995v-.20957c-.0215-.50738-.097-.84931-.2156-1.01475-.1079-.15442-.3235-.2206-.6578-.2206-.3451 0-.5716.1103-.701.33089-.1509.25369-.2264.70592-.2372 1.34565v1.47801c0 .75007.0755 1.24637.2157 1.50007.1294.2206.3558.3309.7009.3309s.5607-.0882.6686-.2206c.1186-.1654.1941-.4963.2157-.9817v-.2206h1.9949l-.0108.2427z"
    />
  </symbol>
  <symbol viewBox="0 0 18 18" id="rd-icon-exclamation-point-circle">
    <path
      clip-rule="evenodd"
      d="m9 0c4.9706 0 9 4.02944 9 9 0 4.9706-4.0294 9-9 9-4.97056 0-9-4.0294-9-9 0-4.97056 4.02944-9 9-9zm0 12.375c-.62132 0-1.125.5037-1.125 1.125s.50368 1.125 1.125 1.125 1.125-.5037 1.125-1.125-.50368-1.125-1.125-1.125zm1.7868-8.4581h-3.47279l.56099 7.3331h2.25z"
      fill-rule="evenodd"
    />
  </symbol>
  <symbol viewBox="0 0 18 18" id="rd-icon-expand">
    <path d="M16 2V9H14V5.414L5.414 14H9V16H2V9H4V12.585L12.585 4H9V2H16Z" />
  </symbol>
  <symbol viewBox="0 0 18 18" id="rd-icon-eye-undo">
    <path
      clip-rule="evenodd"
      d="m1.99158 3.40585 1.41421-1.41421 4.68058 4.68058c.283-.11116.59119-.1722.91363-.1722 1.3807 0 2.5 1.11928 2.5 2.5 0 .32244-.061.63062-.1722.91362l4.8059 4.80596-1.4142 1.4142-1.8952-1.8952c-1.1321.4829-2.4106.7614-3.8243.7614-4.46625 0-7.5825-2.78-9-5.99999.712615-1.61878 1.84035-3.12635 3.36032-4.22541zm4.6806 4.6806c-.11115.28299-.17218.59115-.17218.91357 0 1.38068 1.11929 2.49998 2.5 2.49998.32242 0 .63058-.061.91356-.1722l1.11834 1.1184c-.5955.3519-1.2901.5538-2.0319.5538-2.20914 0-4-1.7908-4-3.99999 0-.74179.20192-1.43643.5538-2.03193z"
      fill-rule="evenodd"
    />
    <path
      d="m12.8867 9.94921c.074-.30426.1133-.62214.1133-.9492 0-2.20914-1.7909-4-4-4-.32705 0-.64494.03925-.9492.1133l-1.7537-1.75369c.8327-.23207 1.73425-.35961 2.7029-.35961 4.5225 0 7.5825 2.78 9 6-.5729 1.30149-1.4234 2.53099-2.5283 3.53419z"
    />
  </symbol>
  <symbol viewBox="0 0 18 18" id="rd-icon-eye">
    <path
      d="m9 11.5c1.3807 0 2.5-1.1193 2.5-2.5 0-1.38071-1.1193-2.5-2.5-2.5-1.38071 0-2.5 1.11929-2.5 2.5 0 1.3807 1.11929 2.5 2.5 2.5z"
    />
    <path
      clip-rule="evenodd"
      d="m18 9c-1.4175-3.22-4.4775-6-9-6s-7.5825 2.78-9 6c1.4175 3.22 4.53375 6 9 6 4.4662 0 7.5825-2.78 9-6zm-9 4c2.2091 0 4-1.7909 4-4 0-2.20914-1.7909-4-4-4-2.20914 0-4 1.79086-4 4 0 2.2091 1.79086 4 4 4z"
      fill-rule="evenodd"
    />
  </symbol>
  <symbol viewBox="0 0 12 12" id="rd-icon-filter-link">
    <path
      fill-rule="evenodd"
      clip-rule="evenodd"
      d="M2.66602 2C2.29783 2 1.99935 2.29848 1.99935 2.66667V5.33333H0.666016V6.66667H1.99935V9.33333C1.99935 9.70152 2.29783 10 2.66602 10H9.33268C9.70087 10 9.99935 9.70152 9.99935 9.33333V6.66667H11.3327V5.33333H9.99935V2.66667C9.99935 2.29848 9.70087 2 9.33268 2H2.66602ZM3.33268 6.66667V8.66667H8.66602V6.66667H7.33268V5.33333H8.66602V3.33333H3.33268V5.33333H4.66602V6.66667H3.33268Z"
      fill="#A5ACB9"
    />
  </symbol>
  <symbol viewBox="0 0 18 18" id="rd-icon-follow-undo">
    <path
      d="m12.0082 7.08159c-.6958.11574-1.3511.35119-1.944.68447-1.98373-2.87893-5.30358-4.76606-9.0642-4.76606v-2c4.63702 0 8.707 2.42779 11.0082 6.08159z"
    />
    <path
      d="m6 14h1.08296c-.05456-.3252-.08296-.6593-.08296-1 0-.6945.11799-1.3614.335-1.9818-1.11971-2.37474-3.53543-4.0182-6.335-4.0182v2c2.76142 0 5 2.2386 5 5z"
    />
    <path
      d="m7.86641 9.89246c.36295-.5983.82755-1.1281 1.36984-1.56543-1.80388-2.61397-4.82001-4.32703-8.23625-4.32703v2c2.91652 0 5.46852 1.56069 6.86641 3.89246z"
    />
    <path d="m5 14c0-2.2091-1.79086-4-4-4v4z" />
    <path
      clip-rule="evenodd"
      d="m18 13c0 2.7614-2.2386 5-5 5s-5-2.2386-5-5 2.2386-5 5-5 5 2.2386 5 5zm-6.2469-2.5713-1.2856 1.2856 1.2856 1.2857-1.2856 1.2856 1.2856 1.2857 1.2857-1.2857 1.2856 1.2857 1.2857-1.2857-1.2857-1.2856 1.2857-1.2857-1.2857-1.2856-1.2856 1.2856z"
      fill-rule="evenodd"
    />
  </symbol>
  <symbol viewBox="0 0 18 18" id="rd-icon-follow">
    <path d="m16 15c0-7.1797-5.8203-13-13-13v2c6.07513 0 11 4.92487 11 11z" />
    <path d="m13 15c0-5.52285-4.47715-10-10-10v2c4.41828 0 8 3.5817 8 8z" />
    <path d="m10 15c0-3.866-3.13401-7-7-7v2c2.76142 0 5 2.2386 5 5z" />
    <path d="m7 15c0-2.2091-1.79086-4-4-4v4z" />
  </symbol>
  <symbol viewBox="0 0 18 18" id="rd-icon-following">
    <path
      d="m10.0642 7.76606c-1.98372-2.87893-5.30358-4.76606-9.0642-4.76606v-2c4.63702 0 8.707 2.42779 11.0082 6.08159-.6958.11574-1.351.35119-1.944.68447z"
    />
    <path
      d="m7.86641 9.89246c-1.39789-2.33177-3.94989-3.89246-6.86641-3.89246v-2c3.41624 0 6.43237 1.71306 8.23625 4.32703-.54229.43733-1.00689.96713-1.36984 1.56543z"
    />
    <path
      d="m7 13c0 .3407.0284.6748.08296 1h-1.08296c0-2.7614-2.23858-5-5-5v-2c2.79957 0 5.21529 1.64346 6.335 4.0182-.21702.6204-.335 1.2873-.335 1.9818z"
    />
    <path d="m1 10c2.20914 0 4 1.7909 4 4h-4z" />
    <path
      clip-rule="evenodd"
      d="m18 13c0 2.7614-2.2386 5-5 5s-5-2.2386-5-5 2.2386-5 5-5 5 2.2386 5 5zm-1.6746-1.165-3.821 3.2752-2.4135-2.4135 1.2857-1.2857 1.2229 1.223 2.5426-2.1795z"
      fill-rule="evenodd"
    />
  </symbol>
  <symbol viewBox="0 0 18 18" id="rd-icon-full-screen-undo">
    <path d="m1 3h2v12h-2z" />
    <path d="m15 3h2v12h-2z" />
    <path d="m13 8h-8v2h8z" />
  </symbol>
  <symbol viewBox="0 0 18 18" id="rd-icon-full-screen">
    <path
      clip-rule="evenodd"
      d="m4.79289 4.29289 1.41422 1.41422-2.2929 2.29289h10.17159l-2.2929-2.29289 1.4142-1.41422 4.7071 4.70711-4.7071 4.7071-1.4142-1.4142 2.2929-2.2929h-10.17159l2.2929 2.2929-1.41422 1.4142-4.7071032-4.7071z"
      fill-rule="evenodd"
    />
  </symbol>
  <symbol viewBox="0 0 18 18" id="rd-icon-funnel">
    <path
      clip-rule="evenodd"
      d="m10.5 9.97v4.96l-3 2.04v-7.02l-6.5-6.95h16z"
      fill-rule="evenodd"
    />
  </symbol>
  <symbol viewBox="0 0 18 18" id="rd-icon-group-undo">
    <path
      clip-rule="evenodd"
      d="m17 3c0 .74028-.4022 1.38663-1 1.73244v6.26756h-2v-6.26756c-.3036-.17564-.5568-.42881-.7324-.73244h-8.53516c-.17564.30363-.42881.5568-.73244.73244v8.53516c.30363.1756.5568.4288.73244.7324h6.26756v2h-6.26756c-.34581.5978-.99216 1-1.73244 1-1.10457 0-2-.8954-2-2 0-.7403.4022-1.3866 1-1.7324v-8.53516c-.5978-.34581-1-.99216-1-1.73244 0-1.10457.89543-2 2-2 .74028 0 1.38663.4022 1.73244 1h8.53516c.3458-.5978.9921-1 1.7324-1 1.1046 0 2 .89543 2 2zm-2 14c1.1046 0 2-.8954 2-2s-.8954-2-2-2-2 .8954-2 2 .8954 2 2 2z"
      fill-rule="evenodd"
    />
  </symbol>
  <symbol viewBox="0 0 18 18" id="rd-icon-hamburger">
    <path d="m3 3h12v2h-12zm0 5h12v2h-12zm0 5h12v2h-12z" />
  </symbol>
  <symbol viewBox="0 0 18 18" id="rd-icon-information">
    <path
      clip-rule="evenodd"
      d="m10 5v10h3v2h-8v-2h3v-8h-2v-2zm0-5v3h-2v-3z"
      fill-rule="evenodd"
    />
  </symbol>
  <symbol viewBox="0 0 18 18" id="rd-icon-italic">
    <path
      fill-rule="evenodd"
      clip-rule="evenodd"
      d="M8 3H13V4H11.3999L8.72039 14H10V15H5V14H6.64983L9.32933 4H8V3Z"
    />
  </symbol>
  <symbol viewBox="0 0 18 18" id="rd-icon-key">
    <path
      clip-rule="evenodd"
      d="m8 9c0 1.3807-1.11929 2.5-2.5 2.5s-2.5-1.1193-2.5-2.5c0-1.38071 1.11929-2.5 2.5-2.5s2.5 1.11929 2.5 2.5zm1.88849-1c-.45473-2.00399-2.2469-3.5-4.38849-3.5-2.48528 0-4.5 2.01472-4.5 4.5 0 2.4853 2.01472 4.5 4.5 4.5 2.14159 0 3.93376-1.496 4.38849-3.5h3.11151v2h4v-4z"
      fill-rule="evenodd"
    />
  </symbol>
  <symbol viewBox="0 0 18 18" id="rd-icon-lock-undo">
    <path
      clip-rule="evenodd"
      d="m4 6h-2v4c0 3.866 3.13401 7 7 7 3.866 0 7-3.134 7-7v-4h-10v-1c0-1.65685 1.34315-3 3-3 .84846 0 1.6147.35222 2.1603.91843l1.024-1.77352c-.8649-.715169-1.9744-1.14491-3.1843-1.14491-2.76142 0-5 2.23858-5 5zm6.5 5.5c0 .8284-.67157 1.5-1.5 1.5s-1.5-.6716-1.5-1.5.67157-1.5 1.5-1.5 1.5.6716 1.5 1.5z"
      fill-rule="evenodd"
    />
  </symbol>
  <symbol viewBox="0 0 18 18" id="rd-icon-lock">
    <path
      clip-rule="evenodd"
      d="m4 6h-2v4c0 3.866 3.13401 7 7 7 3.866 0 7-3.134 7-7v-4h-2v-1c0-2.76142-2.2386-5-5-5-2.76142 0-5 2.23858-5 5zm2 0h6v-1c0-1.65685-1.3431-3-3-3-1.65685 0-3 1.34315-3 3zm4.5 5.5c0 .8284-.67157 1.5-1.5 1.5s-1.5-.6716-1.5-1.5.67157-1.5 1.5-1.5 1.5.6716 1.5 1.5z"
      fill-rule="evenodd"
    />
  </symbol>
  <symbol viewBox="0 0 18 18" id="rd-icon-magnifying-glass">
    <path
      fill-rule="evenodd"
      clip-rule="evenodd"
      d="M13 7.5C13 10.5376 10.5376 13 7.5 13C4.46243 13 2 10.5376 2 7.5C2 4.46243 4.46243 2 7.5 2C10.5376 2 13 4.46243 13 7.5ZM12.2798 13.2798C10.9821 14.3543 9.31644 15 7.5 15C3.35786 15 0 11.6421 0 7.5C0 3.35786 3.35786 0 7.5 0C11.6421 0 15 3.35786 15 7.5C15 9.10418 14.4964 10.5907 13.6386 11.8101L17.4142 15.5858L16 17L12.2798 13.2798Z"
    />
  </symbol>
  <symbol viewBox="0 0 18 18" id="rd-icon-measure">
    <path
      clip-rule="evenodd"
      d="m3.99997 18 .75-4h-2.74997v-2h3.12497l.75-4h-2.87497v-2h3.24997l.75-4h2l-.75 4h3.99993l.75-4 1.9909.00001-.7477 3.99999h2.7569v2h-3.1308l-.7477 4h2.8785v2h-3.2523l-.7477 4h-2.00004l.75004-4h-4.00003l-.75 4zm7.12503-6 .75-4h-4.00003l-.75 4z"
      fill-rule="evenodd"
    />
  </symbol>
  <symbol viewBox="0 0 18 18" id="rd-icon-microphone">
    <path
      clip-rule="evenodd"
      d="m9 13c-2.20914 0-4-1.7909-4-4h-2c0 2.973 2.16229 5.441 5 5.917v1.083h-2v2h6v-2h-2v-1.083c2.8377-.476 5-2.944 5-5.917h-2c0 2.2091-1.7909 4-4 4zm0-12c-1.65685 0-3 1.34315-3 3v5c0 1.6569 1.34315 3 3 3 1.6569 0 3-1.3431 3-3v-5c0-1.65685-1.3431-3-3-3z"
      fill-rule="evenodd"
    />
  </symbol>
  <symbol viewBox="0 0 18 18" id="rd-icon-minus">
    <path d="m2 10v-2h14v2z" />
  </symbol>
  <symbol viewBox="0 0 18 18" id="rd-icon-monitor">
    <path
      clip-rule="evenodd"
      d="m15.4752 12.4934c.2961.3553.5921.8882.7698 1.5987.1776.6513-.3553 1.3618-1.0658 1.3026h-3.3158c-.0592 1.4211-1.2434 2.6053-2.72371 2.6053-1.48026 0-2.66447-1.125-2.72368-2.6053h-3.31579c-.71053 0-1.24342-.6513-1.06579-1.3618.17763-.6513.47368-1.1842.76973-1.5987.05921-.0888.11843-.1924.17764-.296.05921-.1037.11842-.2073.17763-.2961.08451-.1901.16148-.3878.22553-.5904l1.40027-1.32781 2.15865 2.39851 3.74202-4.06275.2049 1.63913 1.1163-.13954-.4252-3.40173-3.34235.42668.14246 1.11595 1.25283-.15994-2.68134 2.9112-2.10451-2.33836-1.2503 1.18563c.16877-3.50626.87495-6.81482 4.06074-7.48551-.05921-.17763-.05921-.29605-.05921-.47369 0-.888154.71052-1.53947 1.53947-1.53947s1.53951.651316 1.53951 1.53947c0 .05323-.012.11842-.0252.1902-.0161.08791-.034.1857-.034.28349 3.375.76973 3.9671 4.44079 4.0855 8.17104 0 .5921.1776 1.1842.4145 1.7171.1184.2369.2368.4145.3552.5921z"
      fill-rule="evenodd"
    />
  </symbol>
  <symbol viewBox="0 0 18 18" id="rd-icon-more">
    <path
      d="m4 9c0 .82843-.67157 1.5-1.5 1.5s-1.5-.67157-1.5-1.5.67157-1.5 1.5-1.5 1.5.67157 1.5 1.5z"
    />
    <path
      d="m10.5 9c0 .82843-.67157 1.5-1.5 1.5s-1.5-.67157-1.5-1.5.67157-1.5 1.5-1.5 1.5.67157 1.5 1.5z"
    />
    <path
      d="m15.5 10.5c.8284 0 1.5-.67157 1.5-1.5s-.6716-1.5-1.5-1.5-1.5.67157-1.5 1.5.6716 1.5 1.5 1.5z"
    />
  </symbol>
  <symbol viewBox="0 0 18 18" id="rd-icon-navigate">
    <path d="m9 3-6 5h12z" />
    <path d="m9 15 6-5h-12z" />
  </symbol>
  <symbol viewBox="0 0 18 18" id="rd-icon-new-tab">
    <path
      fill-rule="evenodd"
      clip-rule="evenodd"
      d="M7.39999 1H2.59999C1.71633 1 0.999989 1.71635 0.999989 2.6V15.4C0.999989 16.2837 1.71633 17 2.59999 17H15.4C16.2836 17 17 16.2837 17 15.4V10.6H15.4V15.2222H2.59999V2.6H7.39999V1ZM5.79999 10.6L7.39999 12.2L15.4 4.2V7.4H17V1H10.6V2.6H13.8L5.79999 10.6Z"
    />
  </symbol>
  <symbol viewBox="0 0 18 18" id="rd-icon-note">
    <path
      clip-rule="evenodd"
      d="m15 1h-12v16h9l3-3zm-4 11h-6v2h6zm-6-4h8v2h-8zm8-4h-8v2h8z"
      fill-rule="evenodd"
    />
  </symbol>
  <symbol viewBox="0 0 18 18" id="rd-icon-number-format">
    <path
      clip-rule="evenodd"
      d="m7 5.36021 1.47334.62939c.05338-.4091.28826-.7238.57653-.7238h.45908c.32029 0 .57655.37764.57655.84968 0 .771-.0214.91262-1.22781 1.74656l.05338-.06294c-1.31319.88114-1.90039 2.01405-1.90039 3.9966v2.1848h4.61222v-2h-3.07494l.00012-.2162-.00012-.0659c-.00151-.5783-.0031-1.1868 1.03573-1.85378l.20285-.11015c1.23846-.92835 1.83636-1.66788 1.83636-3.61899 0-1.71509-.9395-3.11548-2.11395-3.11548h-.45908c-.99291 0-1.81499 1.00702-2.04987 2.36021zm-7 1.63979 2-1.99938v6.99998h-2v2l5-.0006v-1.9994h-1v-8.99998h-2l-2 2zm15.5 7c-.9929 0-1.9519-1.0827-2.1868-2.4359l1.4733-.6294c.0534.4091.2883.7238.5766.7238h.427c.3203 0 .5765-.3776.5765-.8497v-.8024c0-.4878-.2562-.86543-.5765-.86543h-1.1424v-2.26581l1.3523-1.87454h-2.548v-1.98047l4.548-.02015v2.00062l-1.5 1.99938c.8755.39337 1.5 1.57451 1.5 3.0064v.8024c0 1.7151-.8985 3.1912-2.0729 3.1912z"
      fill-rule="evenodd"
    />
  </symbol>
  <symbol viewBox="0 0 18 18" id="rd-icon-paper-plane">
    <path
      clip-rule="evenodd"
      d="m1.67815 6.9978 15.32185-5.9978-5.9872 15.3218c-.0685.1786-.1841.3352-.3345.4532-.1505.118-.3302.1929-.5199.2168-.1897.0238-.38233-.0043-.55732-.0814-.17498-.077-.32576-.2002-.43624-.3562l-2.21749-3.1045c-.11175-.1565-.17868-.3404-.19357-.5321s.02283-.3838.10909-.5556l1.20379-2.42866-2.40757 1.21436c-.17181.0862-.3639.124-.55557.1091s-.37563-.0818-.53206-.1936l-3.12561-2.21748c-.15607-.11048-.2792-.26126-.35627-.43625-.07707-.17498-.105183-.36761-.08133-.55733.02385-.18971.09876-.36939.21675-.51986.11798-.15046.2746-.26607.45315-.33448z"
      fill-rule="evenodd"
    />
  </symbol>
  <symbol viewBox="0 0 18 18" id="rd-icon-pause">
    <path
      clip-rule="evenodd"
      d="m5 3h3v12h-3zm5 0h3v12h-3z"
      fill-rule="evenodd"
    />
  </symbol>
  <symbol viewBox="0 0 18 18" id="rd-icon-pencil">
    <path
      d="m14.8492 1.70711c-.3905-.39053-1.0237-.39053-1.4142 0l-.7071.70711 2.8284 2.82842.7071-.7071c.3906-.39053.3906-1.02369 0-1.41422z"
    />
    <path
      d="m14.8492 5.94975-2.8284-2.82843-8.89951 8.89948-.70711 3.5355 3.53554-.7071z"
    />
  </symbol>
  <symbol viewBox="0 0 18 18" id="rd-icon-pin">
    <path
      d="m15 11c0-3-2.9731-5-4.9955-5v-2c1.0852-.40381 2.0972-1.5219 2.0224-3h-5.98715c-.06736 1.44762.91698 2.58857 1.96473 3v2c-1.96474 0-5.00447 2-5.00448 5z"
    />
    <path d="m10.0045 12h-2v4l1 2 1-2z" />
  </symbol>
  <symbol viewBox="0 0 18 18" id="rd-icon-pinboard">
    <path d="m16 13h-14v3h14z" />
    <path d="m6 8h-4v3h4z" />
    <path d="m7 8h4v3h-4z" />
    <path d="m16 8h-4v3h4z" />
    <path d="m12 3h4v3h-4z" />
    <path d="m11 3h-9v3h9z" />
  </symbol>
  <symbol viewBox="0 0 18 18" id="rd-icon-play">
    <path clip-rule="evenodd" d="m6 4 8 5.5-8 4.5z" fill-rule="evenodd" />
  </symbol>
  <symbol viewBox="0 0 18 18" id="rd-icon-plus">
    <path d="m8 2h2v14h-2z" />
    <path d="m2 10v-2h14v2z" />
  </symbol>
  <symbol viewBox="0 0 18 18" id="rd-icon-present">
    <path
      clip-rule="evenodd"
      d="m1 3c0-.55229.44772-1 1-1h14c.5523 0 1 .44772 1 1v9c0 .5523-.4477 1-1 1h-6.00003v1.4648l2.55473 1.7031-1.1094 1.6642-2.44532-1.6302-2.44529 1.6302-1.10941-1.6642 2.55469-1.7031v-1.4648h-5.99997c-.55228 0-1-.4477-1-1zm6.5 7 4-2.5-4-2.5z"
      fill-rule="evenodd"
    />
  </symbol>
  <symbol viewBox="0 0 18 18" id="rd-icon-profile">
    <path
      d="m9 7c1.6569 0 3-1.34315 3-3s-1.3431-3-3-3c-1.65685 0-3 1.34315-3 3s1.34315 3 3 3z"
    />
    <path d="m3 14c0-3.3137 2.68629-6 6-6 3.3137 0 6 2.6863 6 6v3h-12z" />
  </symbol>
  <symbol viewBox="0 0 18 18" id="rd-icon-question-mark">
    <path
      d="m5.10613 3.70328c-.20434.5636-.30608 1.18983-.30608 1.87868h2.11546c0-.85184.18314-1.53125.54773-2.03738.36459-.50699.93097-.76091 1.6983-.76091.19064.00594.37895.04421.55706.11323.21832.08002.4197.2011.5935.35687.1993.18135.3603.40167.4731.64767.1298.26851.195.59106.195.96679 0 .31312-.0407.58162-.1212.8081-.0797.22475-.1916.42806-.3332.60907-.1425.18186-.3036.34742-.4833.49755-.17891.15098-.36799.31311-.56554.48897-.24758.21275-.46125.42807-.64015.64767-.17975.21876-.33152.47268-.45531.76006-.1238.28823-.21282.62279-.26878 1.00539-.05596.38086-.08394 1.76426-.08394 2.31496h2.00442c0-.4504.0407-1.7496.1212-2.06189.0806-.31312.1942-.58591.3434-.81753.1471-.23011.3214-.44126.5189-.6288.1984-.18701.4146-.38174.6503-.58162.1976-.175.3951-.35429.5935-.5353.1985-.18186.374-.38774.5291-.61936.1543-.23162.2781-.50699.3705-.82611.0933-.31998.1399-.69829.1399-1.13665 0-.60049-.1051-1.13922-.3154-1.61446-.2111-.47611-.4985-.87329-.864-1.19241-.3645-.31912-.791-.56361-1.2803-.7326-.5113-.1725-1.04735-.258017-1.58634-.25307-.68 0-1.29556.10981-1.84668.32856-.52996.20521-1.01084.52187-1.41087.92905-.39619.41132-.69988.90439-.89028 1.44547z"
    />
    <path d="m10 14h-1.99995v3h1.99995z" />
  </symbol>
  <symbol viewBox="0 0 18 18" id="rd-icon-r-analysis">
    <path
      clip-rule="evenodd"
      d="m6.48779 14.5486c-3.7485-.7759-6.48779-3.2304-6.48779-6.14745 0-3.5363 4.02964-6.40115 9.0036-6.40115 4.974 0 8.9964 2.86485 8.9964 6.40115 0 1.26829-.519 2.46195-1.4201 3.45425v-1.2534c.2379-.4998.3604-1.07431.3604-1.72338 0-3.03644-2.7825-4.37934-6.5598-4.37934-3.77738 0-6.84826 1.96213-6.84826 4.37934 0 1.49208 1.17501 2.81258 2.95555 3.60348zm7.01401-3.0364s.483.1567.7569.3059c.2404.1195.4375.3156.5623.5595l1.8887 3.3871h-3.0565l-1.4273-2.8499s-.2884-.5297-.4686-.6864c-.1442-.1268-.2163-.179-.3604-.179h-.7281v3.7078h-2.70324v-9.47485h5.42814s2.4653.05969 2.4653 2.55151c0 2.49184-2.3644 2.68584-2.3644 2.68584zm-1.175-3.17074h-1.6364v1.61148h1.6364s.7569 0 .7569-.82066c0-.83558-.7569-.79082-.7569-.79082z"
      fill-rule="evenodd"
    />
  </symbol>
  <symbol viewBox="0 0 18 18" id="rd-icon-redo">
    <path
      d="m3 16v-8.52752c0-.55228.44772-1 1-1h7.7541l-2.92567-2.9135 1.56547-1.55898 4.4913 4.47248h.0078v.00781l1.107 1.10238-5.6061 5.58263-1.56547-1.5589 2.94137-2.92918h-5.80951-1.00631v7.32278z"
    />
  </symbol>
  <symbol viewBox="0 0 18 18" id="rd-icon-replay-search">
    <path
      fill-rule="evenodd"
      clip-rule="evenodd"
      d="M9 2C5.13401 2 2 5.13401 2 9C2 12.866 5.13401 16 9 16C12.866 16 16 12.866 16 9H18C18 13.9706 13.9706 18 9 18C4.02944 18 0 13.9706 0 9C0 4.02944 4.02944 0 9 0C11.4854 0 13.7363 1.00852 15.364 2.63605L17 1V6H12L13.9498 4.05024C12.682 2.78234 10.9329 2 9 2ZM8 5L13 9L8 13V5Z"
    />
  </symbol>
  <symbol viewBox="0 0 18 18" id="rd-icon-reset">
    <path
      clip-rule="evenodd"
      d="m5 4 4-4v3c3.5899 0 6.5 2.91015 6.5 6.5 0 3.5899-2.9101 6.5-6.5 6.5-3.58985 0-6.5-2.9101-6.5-6.5h2c0 2.4853 2.01472 4.5 4.5 4.5 2.4853 0 4.5-2.0147 4.5-4.5 0-2.48528-2.0147-4.5-4.5-4.5v3z"
      fill-rule="evenodd"
    />
  </symbol>
  <symbol viewBox="0 0 18 18" id="rd-icon-rocket">
    <path
      d="m6.82434 14.3999-2.50983-2.6697-3.31451-.7584c.21075-.9405 1.2645-2.2349 3.17082-3.89335l2.85469-.20225c.52097-.76702 1.1009-1.48745 1.73389-2.15398 1.9159-2.02251 4.0426-3.33714 5.6519-3.61018.8622-.171911 1.6573-.141573 2.414.06068.2108.87979.2395 1.74947.0384 2.6596-.297 1.68879-1.5232 3.88322-3.4008 5.86528-.6705.6978-1.3507 1.3146-2.0404 1.8203l-.1916 3.0236c-1.50397 2.0731-2.69183 3.2259-3.57314 3.4585zm5.81476-8.76755c.4407.46518 1.1495.47529 1.571.03034.4215-.45506.412-1.19328-.0287-1.65846-.2054-.21948-.4845-.34467-.7768-.34846-.2923-.00378-.5742.11414-.7847.32824-.431.44495-.4215 1.19328.0192 1.64834zm-9.33044 7.37205 2.29908 2.4978-3.68811 1.1124z"
    />
  </symbol>
  <symbol viewBox="0 0 18 18" id="rd-icon-save-worksheet">
    <path
      clip-rule="evenodd"
      d="m3 3v3h3v-3zm-1-2c-.55229 0-1 .44772-1 1v14c0 .5523.44771 1 1 1h14c.5523 0 1-.4477 1-1v-14c0-.55228-.4477-1-1-1zm6 2v3h7v-3zm-2 5h-3v7h3zm2 7v-7h7v7z"
      fill-rule="evenodd"
    />
  </symbol>
  <symbol viewBox="0 0 18 18" id="rd-icon-save">
    <path
      d="m3 3v12h12v-12zm-1-2h14c.2652 0 .5196.10536.7071.29289.1875.18754.2929.44189.2929.70711v14c0 .2652-.1054.5196-.2929.7071s-.4419.2929-.7071.2929h-14c-.26522 0-.51957-.1054-.70711-.2929-.18753-.1875-.29289-.4419-.29289-.7071v-14c0-.26522.10536-.51957.29289-.70711.18754-.18753.44189-.29289.70711-.29289zm3 9v-2h8v2zm3-5h2v8h-2z"
    />
  </symbol>
  <symbol viewBox="0 0 18 18" id="rd-icon-schema">
    <path
      clip-rule="evenodd"
      d="m16 7v8h1v2h-4v-2h1v-6h-4v6h1v2h-4v-2h1v-6h-4v6h1v2h-4v-2h1v-8h6v-5h-1v-2h4v2h-1v5z"
      fill-rule="evenodd"
    />
  </symbol>
  <symbol viewBox="0 0 18 18" id="rd-icon-share">
    <path
      clip-rule="evenodd"
      d="m8.99965.00585938-4.17922 4.05980062 1.39357 1.43456 1.78572-1.73469.00028 9.23457 2-.0001-.00028-9.23431 1.78548 1.73452 1.3936-1.43455zm-5.99965 7.99416062c0-.55229.44772-1 1-1h3v2h-2v6.99998h8v-6.99998h-2v-2h3c.5523 0 1 .44771 1 1v8.99998c0 .5523-.4477 1-1 1h-10c-.55228 0-1-.4477-1-1z"
      fill-rule="evenodd"
    />
  </symbol>
  <symbol viewBox="0 0 18 18" id="rd-icon-show-underlying-data">
    <path
      fill-rule="evenodd"
      clip-rule="evenodd"
      d="M13.4444 9.5L17 11.3333L9 16L1 11.3333L4.55556 9.5L9 12L13.4444 9.5ZM9.01014 2L17 5.5L9.03042 10.1667L1 5.5L9.01014 2Z"
    />
  </symbol>
  <symbol viewBox="0 0 18 18" id="rd-icon-sign-out">
    <path
      d="m14.18 10h-10.18v-2h10.18l-1.29-1.3 1.42-1.4 3.69 3.7-3.69 3.7-1.41-1.4zm-11.18 4h7v2h-9v-14h9v2h-7z"
    />
  </symbol>
  <symbol viewBox="0 0 18 18" id="rd-icon-sort">
    <path
      clip-rule="evenodd"
      d="m3 3h14v2h-14zm0 5h11v2h-11zm0 5h8v2h-8z"
      fill-rule="evenodd"
    />
  </symbol>
  <symbol viewBox="0 0 18 18" id="rd-icon-star-undo">
    <path
      d="m6.27014 5.99896 1.67608-4.27635c.37763-.963481 1.72993-.963481 2.10758 0l1.6761 4.27635 4.6925.23959c1.0463.05342 1.4665 1.38703.6427 2.03959l-3.6264 2.87266 1.2053 4.3983c.2758 1.0062-.8209 1.8276-1.6965 1.2707l-3.9475-2.5102-3.94746 2.5102c-.87569.5569-1.97233-.2645-1.69658-1.2707l1.20533-4.3983-3.626389-2.87266c-.823786-.65256-.403564-1.98617.642679-2.03959z"
    />
  </symbol>
  <symbol viewBox="0 0 18 18" id="rd-icon-star">
    <path
      clip-rule="evenodd"
      d="m7.6612 7.93054-3.70532.18918 2.88377 2.28438-.9655 3.5231 3.12585-1.9877 3.1258 1.9877-.9655-3.5231 2.8838-2.28438-3.7053-.18918-1.3388-3.4158zm4.0687-1.93158-1.6761-4.27635c-.37765-.963481-1.72995-.963481-2.10758 0l-1.67608 4.27635-4.69256.23959c-1.046243.05342-1.466465 1.38703-.642679 2.03959l3.626389 2.87266-1.20533 4.3983c-.27575 1.0062.82089 1.8276 1.69658 1.2707l3.94746-2.5102 3.9475 2.5102c.8756.5569 1.9723-.2645 1.6965-1.2707l-1.2053-4.3983 3.6264-2.87266c.8238-.65256.4036-1.98617-.6427-2.03959z"
      fill-rule="evenodd"
    />
  </symbol>
  <symbol viewBox="0 0 18 18" id="rd-icon-strike-through">
    <path
      d="m7.09399 8.97233c-.42837-.33273-.75945-.71588-.98423-1.15128l-.0021-.00407c-.22064-.44373-.32702-.94293-.32702-1.49053 0-.95017.30917-1.75321.93743-2.38428l.00092-.00092c.63602-.63336 1.46284-.94125 2.45117-.94125.67893 0 1.29454.15917 1.83814.48409.5423.31907.9608.76555 1.2521 1.33315.2892.56343.4322 1.17995.4322 1.84435v.30253h-1.9639v-.30253c0-.64143-.1497-1.09272-.4078-1.39578-.2502-.29376-.61767-.45729-1.15074-.45729-.48631 0-.822.13809-1.05139.37855-.23175.24294-.36687.6009-.36687 1.11653 0 .38826.13139.69993.39541.95573.28126.27251.73787.53585 1.39694.77752.78235.26674 1.42455.58506 1.91025.96315h2.5455v1h-1.6887c.2622.4948.3887 1.074.3887 1.7269 0 .9681-.3079 1.7726-.9424 2.3815l-.001.0009c-.6355.6042-1.4877.8907-2.51997.8907-.67221 0-1.29926-.1506-1.87618-.4536l-.00304-.0016c-.574-.3099-1.03017-.7438-1.36367-1.2986l-.00179-.003c-.33041-.5643-.49195-1.2046-.49195-1.9124v-.3025h1.96388v.3025c0 .6303.16839 1.0789.46783 1.3882.30617.3112.72911.4801 1.30492.4801.54452 0 .90057-.1431 1.12527-.3786.2341-.2454.3668-.5925.3668-1.0784 0-.5017-.1307-.8387-.3486-1.0596-.2104-.2134-.59503-.4443-1.18507-.6825h-5.19503v-1h3.13101c-.01134-.00836-.02256-.01673-.03368-.02511z"
    />
  </symbol>
  <symbol viewBox="0 0 24 24" id="rd-icon-super-g">
    <path
      d="M12 4.64C14.2534 4.64 15.7734 5.61333 16.64 6.42667L20.0267 3.12C17.9467 1.18667 15.24 0 12 0C7.3067 0 3.25336 2.69333 1.28003 6.61333L5.16003 9.62667C6.13336 6.73333 8.8267 4.64 12 4.64Z"
      fill="#EA4335"
    />
    <path
      d="M23.5201 12.2668C23.5201 11.2801 23.4401 10.5601 23.2667 9.81348H12.0001V14.2668H18.6134C18.4801 15.3735 17.7601 17.0401 16.1601 18.1601L19.9467 21.0935C22.2134 19.0001 23.5201 15.9201 23.5201 12.2668Z"
      fill="#4285F4"
    />
    <path
      d="M5.17333 14.3733C4.92 13.6266 4.77333 12.8266 4.77333 11.9999C4.77333 11.1733 4.92 10.3733 5.16 9.62661L1.28 6.61328C0.466667 8.23995 0 10.0666 0 11.9999C0 13.9333 0.466667 15.7599 1.28 17.3866L5.17333 14.3733Z"
      fill="#FBBC05"
    />
    <path
      d="M12 24.0002C15.24 24.0002 17.96 22.9335 19.9467 21.0935L16.16 18.1602C15.1467 18.8669 13.7867 19.3602 12 19.3602C8.82667 19.3602 6.13334 17.2669 5.17334 14.3735L1.29333 17.3869C3.26667 21.3069 7.30667 24.0002 12 24.0002Z"
      fill="#34A853"
    />
  </symbol>
  <symbol viewBox="0 0 18 18" id="rd-icon-sync">
    <path
      fill-rule="evenodd"
      clip-rule="evenodd"
      d="M15.9825 8.5H18L15 11.5L12 8.5H13.9755C13.8516 7.24144 13.2645 6.12153 12.3873 5.31243C11.5022 4.49607 10.3257 4 9.03264 4C7.73954 4 6.5631 4.49607 5.67798 5.31243L4.32202 3.84227C5.56094 2.6996 7.21624 2 9.03264 2C10.849 2 12.5043 2.6996 13.7433 3.84227C15.0156 5.01573 15.8531 6.66054 15.9825 8.5ZM3 6L0 9H2.05387C2.25853 10.8866 3.03565 12.5853 4.2022 13.8405C5.42808 15.1596 7.09953 16 8.96736 16C10.8352 16 12.5066 15.1596 13.7325 13.8405L12.2675 12.479C11.3693 13.4454 10.209 14 8.96736 14C7.72569 14 6.56539 13.4454 5.66723 12.479C4.84951 11.5991 4.26214 10.3872 4.06885 9H6L3 6Z"
    />
  </symbol>
  <symbol viewBox="0 0 18 18" id="rd-icon-tag">
    <path
      clip-rule="evenodd"
      d="m10 1h7v7l-8.85604 8.7222c-.1813.1781-.42505.2778-.67892.2778s-.49762-.0997-.67892-.2778l-5.49923-5.4904c-.09091-.0904-.16306-.1979-.2123-.3163s-.07459-.2454-.07459-.3737.02535-.2553.07459-.3737.12139-.22591.2123-.31625zm2.4125 4.58672c.1331.14322.2938.25808.4722.33775.1785.07967.3711.12251.5665.12596.1953.00346.3893-.03255.5705-.10586.1811-.07331.3457-.18243.4838-.32085.1382-.13841.2471-.30329.3203-.48479.0731-.1815.1091-.37591.1056-.57163-.0034-.19572-.0462-.38874-.1257-.56754s-.1942-.33973-.3371-.47318c-.2758-.25747-.6405-.39765-1.0174-.39098-.3769.00666-.7365.15964-1.0031.4267-.2665.26707-.4192.62737-.4259 1.005-.0066.37763.1333.7431.3903 1.01942z"
      fill-rule="evenodd"
    />
  </symbol>
  <symbol viewBox="0 0 18 18" id="rd-icon-text-undo">
    <path d="m4.00005 3v2h4v3.94394l2.00005-1.1547v-2.78924h4v-2z" />
    <path d="m8.00005 15v-1.4373l2.00005-1.1547v2.592z" />
    <path d="m15.2191 5.87661-12.12437 6.99999 1 1.7321 12.12437-7.00004z" />
  </symbol>
  <symbol viewBox="0 0 18 18" id="rd-icon-text">
    <path d="m4 3v2h4v10h2v-10h4v-2z" />
  </symbol>
  <symbol viewBox="0 0 18 18" id="rd-icon-thumb-down-undo">
    <path
      clip-rule="evenodd"
      d="m16.9921 12h-3v-9h3zm-13.98996 2c-.28139.0003-.55967-.0588-.81666-.1734-.257-.1146-.48691-.2821-.67473-.4916-.18782-.2096-.32932-.4564-.41523-.7243-.08592-.268-.114335-.551-.08338-.8307l.66-7c.05419-.48972.28725-.9422.65449-1.27068.36723-.32848.8428-.50985 1.33551-.50932h9.32996v8.99l-2.17 1.69-2.09996 3.38c-.18014.2882-.43077.5258-.72821.6903-.29745.1644-.6319.2504-.97179.2497h-.23c-1 0-1.8-.8-1.8-1.8v-2.2z"
      fill-rule="evenodd"
    />
  </symbol>
  <symbol viewBox="0 0 18 18" id="rd-icon-thumb-down">
    <path
      clip-rule="evenodd"
      d="m16.9921 12h-3v-9h3zm-13.98996 2c-.28139.0003-.55967-.0588-.81666-.1734-.257-.1146-.48691-.2821-.67473-.4916-.18782-.2096-.32932-.4564-.41523-.7243-.08592-.268-.114335-.551-.08338-.8307l.66-7c.05419-.48972.28725-.9422.65449-1.27068.36723-.32848.8428-.50985 1.33551-.50932h9.32996v8.99l-2.17 1.69-2.09996 3.38c-.18014.2882-.43077.5258-.72821.6903-.29745.1644-.6319.2504-.97179.2497h-.23c-1 0-1.8-.8-1.8-1.8v-2.2zm.66-9-.67 7h4v4h.03l2.3-3.68 1.66996-1.3v-6.02z"
      fill-rule="evenodd"
    />
  </symbol>
  <symbol viewBox="0 0 18 18" id="rd-icon-thumb-up-undo">
    <path
      clip-rule="evenodd"
      d="m1 7h3v9h-3zm13.99-1c.2814-.0003.5597.05878.8167.17338s.4869.28213.6747.49166.3293.45633.4152.72428c.0859.26794.1144.55101.0834.83069l-.66 5.99999c-.0542.4897-.2873.9422-.6545 1.2707s-.8428.5098-1.3355.5093h-9.33v-8.99l2.17-1.69 2.1-3.37999c.18014-.28823.43076-.52579.72821-.69026.29749-.16447.63189-.250426.97179-.24975h.23c1 0 1.8.8 1.8 1.8v3.2z"
      fill-rule="evenodd"
    />
  </symbol>
  <symbol viewBox="0 0 18 18" id="rd-icon-thumb-up">
    <path
      clip-rule="evenodd"
      d="m1 7h3v9h-3zm13.99-1c.2814-.0003.5597.05878.8167.17338s.4869.28213.6747.49166.3293.45633.4152.72428c.0859.26794.1144.55101.0834.83069l-.66 5.99999c-.0542.4897-.2873.9422-.6545 1.2707s-.8428.5098-1.3355.5093h-9.33v-8.99l2.17-1.69 2.1-3.37999c.18014-.28823.43076-.52579.72821-.69026.29749-.16447.63189-.250426.97179-.24975h.23c1 0 1.8.8 1.8 1.8v3.2zm-.66 8 .67-6h-4v-4.99999h-.03l-2.3 3.68-1.67 1.29999v6.02z"
      fill-rule="evenodd"
    />
  </symbol>
  <symbol viewBox="0 0 18 18" id="rd-icon-trash-can">
    <path
      clip-rule="evenodd"
      d="m4 5h10l-1.6667 11h-6.66663zm0-1v-2h10v2z"
      fill-rule="evenodd"
    />
  </symbol>
  <symbol viewBox="0 0 18 18" id="rd-icon-underline">
    <path
      clip-rule="evenodd"
      d="m7.5 9.5v-6.5h-2v6.5c0 1.933 1.567 3.5 3.5 3.5s3.5-1.567 3.5-3.5v-6.5h-2v6.5c0 .8284-.67157 1.5-1.5 1.5s-1.5-.6716-1.5-1.5zm5.5 5.5v-1h-8v1z"
      fill-rule="evenodd"
    />
  </symbol>
  <symbol viewBox="0 0 18 18" id="rd-icon-undo">
    <path
      d="m15 16v-8.52752c0-.55228-.4477-1-1-1h-7.75413l2.9257-2.9135-1.56551-1.55898-4.49122 4.47248h-.00784v.00781l-1.107 1.10238 5.60605 5.58263 1.56552-1.5589-2.9414-2.92918h5.80953 1.0063v7.32278z"
    />
  </symbol>
  <symbol viewBox="0 0 18 18" id="rd-icon-upload-data">
    <path d="m14 1h2v2h2v2h-2v2h-2v-2h-2v-2h2z" />
    <path
      d="m8.5 3.99999c.89981 0 1.7496.07114 2.5.19722v3.21667c-.7504.12608-1.60019.19722-2.5.19722-3.03417 0-5.5-.80888-5.5-1.80555s2.46583-1.80556 5.5-1.80556z"
    />
    <path
      d="m14 10.5c0 .8667-2.4017 1.8055-5.5 1.8055-3.08917 0-5.48167-.9388-5.5-1.7911v-2.5133c1.35667.66445 3.33667 1.05445 5.5 1.05445 2.1633 0 4.1433-.39 5.5-1.05445z"
    />
    <path
      d="m14 12.6956v2.5277c-.0367.9823-2.4842 1.7767-5.5 1.7767-3.01583 0-5.46333-.7945-5.5-1.7839v-2.5278c1.35667.6717 3.33667 1.0617 5.5 1.0617 2.1633 0 4.1433-.39 5.5-1.0544z"
    />
  </symbol>
  <symbol viewBox="0 0 18 18" id="rd-icon-upload">
    <path
      clip-rule="evenodd"
      d="m5.99 9.81006 2-2v10.19004h2v-10.19004l2 2 1.41-1.41-4.41-4.41-4.41 4.41zm10.01-8.81004v4h-3c0-1.00002-.99-3-4-3s-4 1.99998-4 3h-3v-4z"
      fill-rule="evenodd"
    />
  </symbol>
  <symbol viewBox="0 0 18 18" id="rd-icon-video">
    <path
      clip-rule="evenodd"
      d="m2 3h14c.2652 0 .5196.09658.7071.26849.1875.1719.2929.40506.2929.64818v9.16663c0 .2431-.1054.4763-.2929.6482s-.4419.2685-.7071.2685h-14c-.26522 0-.51957-.0966-.70711-.2685-.18753-.1719-.29289-.4051-.29289-.6482v-9.16663c0-.24312.10536-.47628.29289-.64818.18754-.17191.44189-.26849.70711-.26849zm6 2v7l5-3.5z"
      fill-rule="evenodd"
    />
  </symbol>
  <symbol viewBox="0 0 18 18" id="rd-icon-zoom-area">
    <path d="m3 1h-2v2h2z" />
    <path d="m6 1h-2v2h2z" />
    <path d="m7 1h2v2h-2z" />
    <path d="m12 1h-2v2h2z" />
    <path d="m13 1h2v2h-2z" />
    <path d="m17 1h-1v2h1z" />
    <path d="m17 7v2h-2v-2z" />
    <path d="m17 6v-2h-2v2z" />
    <path d="m17 10v2h-2v-2z" />
    <path d="m3 4h-2v2h2z" />
    <path d="m1 7h2v2h-2z" />
    <path d="m3 16h-2v1h2z" />
    <path d="m1 13h2v2h-2z" />
    <path d="m6 15h-2v2h2z" />
    <path d="m1 10h2v2h-2z" />
    <path d="m9 15h-2v2h2z" />
    <path d="m10 15h2v2h-2z" />
    <path
      clip-rule="evenodd"
      d="m6.41413 6.17157c1.56209-1.56209 4.09477-1.56209 5.65687 0 1.3612 1.36125 1.5363 3.45952.5251 5.01033l4.2473 4.2473-1.4142 1.4142-4.3099-4.3098c-1.51202.8037-3.43131.5687-4.70517-.7052-1.5621-1.5621-1.5621-4.09473 0-5.65683zm4.24267 1.41422c-.78108-.78105-2.04741-.78105-2.82846 0-.78105.78104-.78105 2.04738 0 2.82841.78105.7811 2.04738.7811 2.82846 0 .781-.78103.781-2.04737 0-2.82841z"
      fill-rule="evenodd"
    />
  </symbol>
</svg>
